<?xml version="1.0" standalone="no"?>
<!DOCTYPE svg PUBLIC "-//W3C//DTD SVG 20010904//EN"
 "http://www.w3.org/TR/2001/REC-SVG-20010904/DTD/svg10.dtd">
<svg version="1.0" xmlns="http://www.w3.org/2000/svg"
 width="512.000000pt" height="512.000000pt" viewBox="0 0 512.000000 512.000000"
 preserveAspectRatio="xMidYMid meet">

<g transform="translate(0.000000,512.000000) scale(0.100000,-0.100000)"
fill="#000000" stroke="none">
<path d="M685 4490 c-231 -48 -422 -237 -470 -465 -12 -60 -15 -277 -15 -1471
0 -1363 1 -1403 20 -1478 50 -197 186 -346 388 -425 l67 -26 1880 0 c1817 0
1882 1 1935 19 109 37 173 77 250 155 87 87 132 165 160 277 19 74 20 114 20
1038 0 799 -3 972 -15 1029 -30 145 -126 287 -249 372 -52 36 -56 41 -56 79
-1 143 -68 296 -179 407 -75 76 -130 110 -241 153 -55 21 -61 21 -1180 24
l-1125 2 -30 47 c-66 106 -186 198 -315 244 -63 23 -76 24 -435 26 -203 1
-388 -2 -410 -7z m798 -257 c64 -30 117 -73 152 -123 15 -22 59 -122 97 -223
38 -100 84 -205 103 -233 73 -111 193 -202 325 -247 l65 -22 1095 -5 1095 -5
48 -22 c71 -34 150 -113 183 -186 l29 -62 0 -980 0 -980 -23 -57 c-32 -80 -99
-150 -180 -190 l-67 -33 -1850 0 -1850 0 -50 24 c-73 35 -148 111 -181 184
l-29 62 -3 1405 c-2 1388 -2 1406 18 1472 33 109 141 211 254 239 17 4 186 7
376 6 334 -2 347 -3 393 -24z m2649 -321 c104 -42 193 -145 216 -250 l10 -42
-1057 2 -1056 3 -67 33 c-36 18 -82 51 -103 73 -34 38 -83 130 -100 187 l-6
22 1053 -2 1053 -3 57 -23z"/>
<path d="M865 2026 c-65 -29 -93 -103 -61 -164 33 -64 16 -62 651 -62 632 0
618 -1 650 60 32 62 4 139 -60 166 -49 20 -1134 20 -1180 0z"/>
<path d="M844 1471 c-56 -34 -70 -125 -27 -174 43 -48 33 -47 863 -47 860 0
831 -2 870 62 24 40 25 69 4 114 -32 67 11 64 -876 64 -768 0 -804 -1 -834
-19z"/>
</g>
</svg>
