<?xml version="1.0" standalone="no"?>
<!DOCTYPE svg PUBLIC "-//W3C//DTD SVG 20010904//EN"
 "http://www.w3.org/TR/2001/REC-SVG-20010904/DTD/svg10.dtd">
<svg version="1.0" xmlns="http://www.w3.org/2000/svg"
 width="512.000000pt" height="512.000000pt" viewBox="0 0 512.000000 512.000000"
 preserveAspectRatio="xMidYMid meet">

<g transform="translate(0.000000,512.000000) scale(0.100000,-0.100000)"
fill="#000000" stroke="none">
<path d="M2320 4526 c-58 -8 -145 -23 -195 -35 -643 -145 -1177 -608 -1413
-1224 -208 -543 -163 -1179 118 -1670 28 -48 50 -92 50 -97 0 -6 -68 -173
-151 -372 -136 -326 -151 -366 -146 -406 8 -72 63 -129 133 -139 28 -3 167 25
495 100 l456 106 129 -54 c441 -184 937 -204 1385 -54 636 211 1122 730 1293
1379 48 180 60 280 60 500 0 221 -12 318 -61 505 -149 572 -566 1062 -1111
1305 -137 61 -307 113 -459 140 -153 28 -435 35 -583 16z m553 -336 c649 -127
1156 -619 1305 -1265 99 -429 16 -892 -226 -1265 -249 -384 -630 -641 -1084
-732 -166 -33 -455 -33 -618 1 -151 31 -269 70 -411 137 -63 30 -125 54 -138
54 -12 0 -169 -34 -349 -75 -179 -42 -329 -74 -333 -73 -4 2 40 116 98 253
129 308 129 307 50 432 -142 227 -219 437 -252 690 -119 910 531 1747 1449
1863 118 15 386 4 509 -20z"/>
<path d="M2495 3346 c-37 -17 -70 -52 -84 -89 -7 -17 -11 -127 -11 -282 l0
-254 -269 -3 c-254 -3 -271 -4 -297 -24 -53 -39 -69 -71 -69 -134 0 -63 16
-95 69 -134 26 -20 43 -21 296 -24 l269 -3 3 -269 c3 -253 4 -270 24 -296 39
-53 71 -69 134 -69 63 0 95 16 134 69 20 26 21 43 24 296 l3 269 269 3 c253 3
270 4 296 24 53 39 69 71 69 134 0 63 -16 95 -69 134 -26 20 -43 21 -296 24
l-269 3 -3 269 c-3 253 -4 270 -24 296 -11 15 -32 37 -46 47 -34 25 -113 32
-153 13z"/>
</g>
</svg>
