<?xml version="1.0" standalone="no"?>
<!DOCTYPE svg PUBLIC "-//W3C//DTD SVG 20010904//EN"
 "http://www.w3.org/TR/2001/REC-SVG-20010904/DTD/svg10.dtd">
<svg version="1.0" xmlns="http://www.w3.org/2000/svg"
 width="512.000000pt" height="512.000000pt" viewBox="0 0 512.000000 512.000000"
 preserveAspectRatio="xMidYMid meet">

<g transform="translate(0.000000,512.000000) scale(0.100000,-0.100000)"
fill="#000000" stroke="none">
<path d="M2504 4781 c-17 -11 -36 -34 -43 -52 -8 -22 -11 -196 -11 -571 0
-591 0 -592 59 -622 38 -20 64 -20 102 0 59 30 59 31 59 624 0 593 0 594 -59
624 -40 21 -69 20 -107 -3z"/>
<path d="M1230 4143 c-44 -30 -61 -71 -49 -118 6 -21 113 -135 352 -372 340
-340 343 -343 384 -343 76 0 134 80 103 141 -17 33 -658 677 -692 695 -36 19
-68 18 -98 -3z"/>
<path d="M3785 4141 c-50 -32 -673 -664 -685 -695 -24 -65 30 -136 104 -136
40 0 45 5 379 338 186 185 343 345 349 356 26 48 2 122 -48 144 -36 17 -65 15
-99 -7z"/>
<path d="M3553 3295 c-32 -32 -35 -40 -30 -76 3 -23 15 -51 26 -63 13 -14 99
-52 218 -96 141 -53 191 -75 177 -81 -10 -4 -326 -122 -701 -263 l-681 -255
-702 263 -702 263 144 53 c79 29 155 59 170 67 30 15 58 60 58 93 0 59 -72
120 -123 105 -37 -11 -560 -206 -596 -223 -27 -13 -75 -78 -263 -361 -221
-332 -230 -346 -225 -384 3 -23 15 -50 29 -63 13 -13 103 -53 208 -92 l185
-69 5 -434 c4 -390 7 -439 23 -484 44 -118 118 -212 219 -279 36 -24 289 -124
801 -316 411 -154 756 -280 767 -280 35 0 1511 559 1561 591 99 63 179 163
222 274 21 58 22 75 27 494 l5 434 185 69 c105 39 195 79 208 92 14 13 26 40
29 63 5 38 -4 52 -225 384 -186 281 -236 349 -263 361 -97 46 -657 248 -687
248 -26 0 -43 -9 -69 -35z m-1893 -724 c399 -150 727 -275 729 -277 2 -2 -61
-101 -140 -220 -79 -119 -147 -221 -151 -227 -5 -8 -461 158 -1486 544 -21 8
-16 18 129 235 130 195 154 225 172 221 12 -2 348 -127 747 -276z m2720 54
l150 -225 -27 -11 c-189 -73 -1465 -549 -1471 -549 -13 1 -307 453 -297 457
331 128 1465 551 1477 552 12 1 64 -68 168 -224z m-2839 -811 c603 -226 614
-229 659 -189 10 9 69 93 131 187 l114 171 3 -351 c1 -194 1 -509 0 -700 l-3
-348 -617 232 c-340 127 -639 239 -665 249 -64 24 -145 103 -174 168 -24 51
-24 58 -27 425 -2 204 -1 372 1 372 2 0 262 -97 578 -216z m2617 -156 c-3
-367 -3 -374 -27 -425 -33 -74 -110 -143 -196 -177 -38 -15 -338 -127 -665
-250 l-595 -223 -3 349 c-1 191 -1 506 0 700 l3 351 114 -171 c62 -94 121
-178 131 -187 45 -40 57 -37 655 189 314 118 574 215 578 215 4 1 7 -167 5
-371z"/>
</g>
</svg>
