<?xml version="1.0" standalone="no"?>
<!DOCTYPE svg PUBLIC "-//W3C//DTD SVG 20010904//EN"
 "http://www.w3.org/TR/2001/REC-SVG-20010904/DTD/svg10.dtd">
<svg version="1.0" xmlns="http://www.w3.org/2000/svg"
 width="512.000000pt" height="512.000000pt" viewBox="0 0 512.000000 512.000000"
 preserveAspectRatio="xMidYMid meet">

<g transform="translate(0.000000,512.000000) scale(0.100000,-0.100000)"
fill="#000000" stroke="none">
<path d="M1641 4944 c-83 -22 -165 -71 -224 -133 -99 -104 -137 -210 -137
-383 l0 -108 -108 0 c-178 0 -295 -44 -395 -149 -102 -106 -137 -209 -137
-396 l0 -120 -64 -33 c-115 -60 -207 -177 -241 -309 -22 -86 -22 -2380 0
-2466 45 -173 178 -307 350 -352 52 -13 277 -15 1875 -15 1598 0 1823 2 1875
15 172 45 305 179 350 352 22 86 22 1740 0 1826 -34 132 -126 249 -241 309
l-64 33 0 760 c0 642 -2 770 -15 818 -45 173 -178 307 -350 352 -86 22 -2391
22 -2474 -1z m2445 -330 c15 -11 37 -33 48 -48 21 -27 21 -38 24 -777 l2 -749
-160 0 -160 0 0 428 c0 470 -2 492 -61 603 -38 70 -126 157 -197 193 -113 57
-87 56 -1074 56 l-908 0 0 94 c0 102 9 137 43 175 49 53 -5 51 1249 48 1161
-2 1167 -2 1194 -23z m-640 -640 c15 -11 37 -33 48 -48 20 -27 21 -41 24 -457
l3 -429 -398 0 c-356 1 -401 3 -430 18 -17 9 -158 130 -313 267 -303 269 -332
292 -418 327 -56 22 -65 23 -529 26 l-473 3 0 94 c0 101 9 136 43 174 49 53
-5 51 1249 48 1161 -2 1167 -2 1194 -23z m-1579 -632 c17 -9 157 -129 311
-266 297 -264 335 -293 422 -329 l55 -22 862 -5 c851 -5 862 -5 889 -26 15
-11 37 -33 48 -48 21 -27 21 -34 21 -886 0 -852 0 -859 -21 -886 -11 -15 -33
-37 -48 -48 l-27 -21 -1819 0 -1819 0 -27 21 c-15 11 -37 33 -48 48 -21 27
-21 34 -24 1179 -1 634 0 1166 3 1184 7 40 49 91 90 109 24 10 142 13 565 13
486 0 538 -1 567 -17z"/>
</g>
</svg>
